# xmcd CD database file
#
# Track frame offsets:
#	150
#	30081
#	55853
#	80761
#	99615
#	127365
#	154279
#	185723
#	206340
#	229465
#	249518
#	268156
#	282559
#	304068
#
# Disc length: 4282 seconds
#
# Revision: 0
# Processed by: cddbd v1.5.1PL0 Copyright (c) Steve Scherf et al.
# Submitted via: CDex 1.51
#
DISCID=d110b80e
DTITLE=Claude Challe - Buddha Bar 1 - CD 2
DYEAR=2001
DGENRE=New Age
TTITLE0=68 [Original Mix] - Anima Sound System
TTITLE1=Touareg
TTITLE2=Skin [Original Abstract Mix]
TTITLE3=Drifting Away [Paradiso Mix]
TTITLE4=Psique 
TTITLE5=Two Wrongs Making It Right
TTITLE6=Feeling Good
TTITLE7=All by Myself
TTITLE8=Flying High [Master at Work Brazilian Vocal Mix]
TTITLE9=Piya Re Piya Re [Remix]
TTITLE10=Eshebo 
TTITLE11=Theme from Shaft - Malik Adouane
TTITLE12=Elveda
TTITLE13=Desmasiado Corazon
EXTD=YEAR: 2001
EXTT0=
EXTT1=
EXTT2=
EXTT3=
EXTT4=
EXTT5=
EXTT6=
EXTT7=
EXTT8=
EXTT9=
EXTT10=
EXTT11=
EXTT12=
EXTT13=
PLAYORDER=
